<svg width="16" height="20" viewBox="0 0 16 20" fill="none" xmlns="http://www.w3.org/2000/svg">
<path fill-rule="evenodd" clip-rule="evenodd" d="M8 0C10.2091 0 12 1.79086 12 4V6H13.75C14.9926 6 16 7.00736 16 8.25V17.75C16 18.9926 14.9926 20 13.75 20H2.25C1.00736 20 0 18.9926 0 17.75V8.25C0 7.00736 1.00736 6 2.25 6H4V4C4 1.79086 5.79086 0 8 0ZM8 1.5C6.6193 1.5 5.5 2.61929 5.5 4V6H10.5V4C10.5 2.61929 9.3807 1.5 8 1.5ZM8 14.5C8.82843 14.5 9.5 13.8284 9.5 13C9.5 12.1716 8.82843 11.5 8 11.5C7.17157 11.5 6.5 12.1716 6.5 13C6.5 13.8284 7.17157 14.5 8 14.5Z" fill="#888888"/>
</svg>
