<svg width="16" height="16" viewBox="0 0 16 16" fill="none" xmlns="http://www.w3.org/2000/svg">
<path d="M9.02342 5.82836L5.82445 9.02932C5.74949 9.10371 5.69 9.19222 5.6494 9.28973C5.60879 9.38725 5.58789 9.49185 5.58789 9.59749C5.58789 9.70313 5.60879 9.80772 5.6494 9.90524C5.69 10.0028 5.74949 10.0913 5.82445 10.1657C5.8988 10.2407 5.98725 10.3002 6.08471 10.3408C6.18216 10.3815 6.28669 10.4024 6.39227 10.4024C6.49785 10.4024 6.60238 10.3815 6.69983 10.3408C6.79729 10.3002 6.88574 10.2407 6.96009 10.1657L10.1591 6.9647C10.3097 6.81401 10.3943 6.60964 10.3943 6.39653C10.3943 6.18343 10.3097 5.97905 10.1591 5.82836C10.0085 5.67767 9.80421 5.59302 9.59124 5.59302C9.37827 5.59302 9.17402 5.67767 9.02342 5.82836Z" fill="#636972"/>
<path d="M8.21474 12.3186L7.19107 13.3349C6.61639 13.9275 5.84385 14.2876 5.0208 14.3466C4.19774 14.4057 3.38177 14.1595 2.72851 13.655C2.38323 13.3703 2.10148 13.0164 1.90144 12.6159C1.70141 12.2155 1.58754 11.7775 1.56719 11.3303C1.54684 10.8831 1.62046 10.4366 1.7833 10.0196C1.94615 9.60267 2.19459 9.22452 2.51258 8.90962L3.64821 7.76527C3.72317 7.69088 3.78266 7.60237 3.82327 7.50486C3.86387 7.40734 3.88477 7.30275 3.88477 7.1971C3.88477 7.09146 3.86387 6.98687 3.82327 6.88935C3.78266 6.79183 3.72317 6.70333 3.64821 6.62893C3.57386 6.55393 3.48541 6.4944 3.38795 6.45377C3.2905 6.41314 3.18597 6.39222 3.08039 6.39222C2.97482 6.39222 2.87029 6.41314 2.77283 6.45377C2.67537 6.4944 2.58692 6.55393 2.51258 6.62893L1.4969 7.65324C0.641304 8.48229 0.115415 9.59384 0.016872 10.7815C-0.0816714 11.9692 0.253825 13.1523 0.961075 14.1112C1.38084 14.6561 1.91168 15.1054 2.51832 15.4292C3.12497 15.753 3.79353 15.944 4.4796 15.9894C5.16568 16.0348 5.85356 15.9337 6.49755 15.6926C7.14154 15.4515 7.72689 15.0761 8.21474 14.5913L9.35037 13.455C9.50097 13.3043 9.58557 13.0999 9.58557 12.8868C9.58557 12.6737 9.50097 12.4693 9.35037 12.3186C9.19978 12.1679 8.99553 12.0833 8.78256 12.0833C8.56958 12.0833 8.36533 12.1679 8.21474 12.3186ZM14.1168 0.971242C13.1519 0.2562 11.9599 -0.082923 10.7634 0.0172168C9.56688 0.117357 8.44771 0.649911 7.61493 1.5154L6.75121 2.39567C6.65249 2.46748 6.56994 2.55923 6.5089 2.66499C6.44787 2.77075 6.40971 2.88816 6.39689 3.00961C6.38407 3.13106 6.39689 3.25385 6.4345 3.37003C6.47212 3.48621 6.5337 3.59319 6.61525 3.68405C6.6896 3.75906 6.77805 3.81859 6.87551 3.85922C6.97296 3.89985 7.0775 3.92076 7.18307 3.92076C7.28865 3.92076 7.39318 3.89985 7.49063 3.85922C7.58809 3.81859 7.67654 3.75906 7.75089 3.68405L8.79055 2.63574C9.36205 2.04062 10.1337 1.67852 10.9564 1.6194C11.7791 1.56029 12.5945 1.80834 13.2451 2.31564C13.593 2.60037 13.877 2.95524 14.0786 3.35713C14.2802 3.75901 14.3949 4.1989 14.4153 4.64812C14.4357 5.09735 14.3612 5.54582 14.1968 5.96433C14.0324 6.38284 13.7817 6.76199 13.461 7.07707L12.3254 8.22141C12.2505 8.2958 12.191 8.38431 12.1504 8.48183C12.1098 8.57934 12.0889 8.68394 12.0889 8.78958C12.0889 8.89522 12.1098 8.99982 12.1504 9.09733C12.191 9.19485 12.2505 9.28336 12.3254 9.35775C12.3998 9.43276 12.4882 9.49229 12.5857 9.53292C12.6831 9.57354 12.7877 9.59446 12.8932 9.59446C12.9988 9.59446 13.1033 9.57354 13.2008 9.53292C13.2982 9.49229 13.3867 9.43276 13.461 9.35775L14.5967 8.22141C15.0799 7.73335 15.4539 7.14813 15.694 6.50453C15.9341 5.86092 16.0348 5.17362 15.9894 4.48814C15.944 3.80265 15.7536 3.13464 15.4308 2.52834C15.108 1.92204 14.6601 1.39129 14.1168 0.971242Z" fill="#636972"/>
</svg>
